<svg width="588" height="410" viewBox="0 0 588 410" fill="none" xmlns="http://www.w3.org/2000/svg">
<path d="M462.113 119.918C460.947 120.646 459.803 121.387 458.66 122.153C446.588 152.64 439.696 184.944 438.27 217.719C438.094 221.51 438.005 225.294 438.002 229.073C437.898 257.409 442.006 285.602 450.19 312.722C450.622 314.149 451.064 315.571 451.514 316.987C451.837 318.004 452.166 319.03 452.522 320.038C452.902 320.555 453.275 321.062 453.648 321.57C453.675 321.592 453.698 321.629 453.724 321.652C453.875 321.857 454.025 322.062 454.161 322.263C454.806 323.133 455.462 323.997 456.107 324.867L455.563 324.904L454.2 324.991L454.206 325C454.664 324.991 455.131 324.975 455.592 324.951C455.76 324.951 455.942 324.955 456.113 324.94C456.266 324.938 456.428 324.929 456.581 324.926C476.232 324.391 496.342 323.407 514.225 315.34C532.942 306.889 548.819 288.619 548.012 268.041C547.899 265.345 547.491 262.671 546.797 260.065C546.508 258.976 546.166 257.907 545.799 256.84C543.567 250.306 539.642 244.488 534.427 239.982C529.212 235.476 522.896 232.445 516.127 231.201C509.359 229.958 502.383 230.546 495.916 232.906C489.449 235.266 483.726 239.312 479.333 244.629C484.697 223.468 507.725 212.669 528.466 206.104C549.222 199.543 572.574 192.68 583.178 173.613C589.099 163.003 589.241 150.641 585.378 139.226C585.26 138.885 585.137 138.534 585.004 138.189C580.139 124.758 570.404 113.664 557.744 107.124C534.025 95.336 505.203 99.4954 480.899 110.017C474.397 112.836 468.117 116.146 462.113 119.918Z" fill="#F2F2F2"/>
<path d="M530.67 256.64C512.02 258.368 494.418 266.097 480.463 278.684C468.579 289.524 459.809 303.388 455.075 318.821C454.8 319.704 454.549 320.586 454.314 321.471C453.842 320.567 453.385 319.643 452.932 318.727C452.641 318.141 452.344 317.545 452.062 316.954C452.386 317.974 452.714 319.005 453.071 320.017C453.45 320.536 453.824 321.046 454.197 321.555C454.224 321.577 454.247 321.615 454.274 321.638C454.424 321.844 454.575 322.049 454.71 322.251C455.356 323.125 456.011 323.993 456.657 324.866L456.113 324.904L454.75 324.991L454.755 325C455.213 324.991 455.68 324.975 456.142 324.951C456.309 324.951 456.492 324.955 456.663 324.94C456.72 324.672 456.791 324.408 456.862 324.143C461.694 304.21 473.521 286.713 490.159 274.884C506.796 263.056 527.12 257.694 547.375 259.791C547.085 258.698 546.743 257.624 546.376 256.553C541.148 256.122 535.893 256.151 530.67 256.64Z" fill="white"/>
<path d="M468.074 179.158C460.613 184.831 454.008 191.58 448.469 199.191C445.583 203.249 443.076 207.57 440.98 212.099C439.986 214.201 439.081 216.365 438.267 218.551C438.092 222.373 438.003 226.189 438 230C438.692 227.119 439.534 224.278 440.525 221.489C441.04 219.957 441.612 218.456 442.22 216.972C449.038 200.35 461.392 187.226 475.962 177.248C491.574 166.571 509.175 158.557 527.012 152.597C545.293 146.461 564.246 142.622 583.447 141.166C583.88 141.131 584.284 140.927 584.573 140.597C584.862 140.267 585.015 139.837 584.999 139.395C585.014 139.011 584.88 138.636 584.626 138.35C584.491 138.216 584.327 138.116 584.147 138.058C583.967 138 583.776 137.985 583.59 138.015C581.22 138.195 578.857 138.385 576.494 138.64C556.831 140.695 537.496 145.225 518.934 152.124C501.016 158.759 483.282 167.364 468.074 179.158Z" fill="white"/>
<path d="M566.125 87.5C562.673 87.5 559.875 84.7018 559.875 81.25C559.875 77.7982 562.673 75 566.125 75C569.577 75 572.375 77.7982 572.375 81.25C572.375 84.7018 569.577 87.5 566.125 87.5Z" fill="#F2F2F2"/>
<path d="M129.954 122.541C131.158 123.289 132.339 124.052 133.519 124.839C145.98 156.192 153.096 189.412 154.568 223.119C154.75 227.017 154.842 230.909 154.844 234.795C154.952 263.935 150.711 292.929 142.262 320.818C141.816 322.286 141.361 323.749 140.896 325.205C140.562 326.25 140.223 327.305 139.855 328.342C139.463 328.874 139.078 329.396 138.692 329.917C138.665 329.94 138.642 329.979 138.614 330.002C138.459 330.213 138.303 330.424 138.164 330.63C137.497 331.525 136.821 332.414 136.154 333.308L136.716 333.346L138.123 333.436L138.117 333.445C137.644 333.435 137.162 333.42 136.686 333.394C136.513 333.395 136.325 333.399 136.148 333.384C135.99 333.381 135.823 333.372 135.666 333.369C115.379 332.819 94.6189 331.807 76.1588 323.511C56.8369 314.82 40.4467 296.031 41.2797 274.868C41.3969 272.097 41.8174 269.346 42.5338 266.666C42.8328 265.547 43.1861 264.447 43.5647 263.35C45.8688 256.631 49.9208 250.647 55.3042 246.013C60.6875 241.379 67.2078 238.262 74.1949 236.983C81.1819 235.705 88.3834 236.31 95.0591 238.737C101.735 241.163 107.644 245.324 112.178 250.792C106.641 229.03 82.8686 217.925 61.4577 211.174C40.0311 204.426 15.9242 197.368 4.97752 177.76C-1.13421 166.849 -1.28137 154.136 2.70662 142.396C2.82803 142.046 2.95554 141.685 3.09263 141.33C8.11528 127.518 18.1649 116.109 31.2334 109.384C55.7191 97.2605 85.4723 101.538 110.561 112.358C117.273 115.257 123.757 118.661 129.954 122.541Z" fill="#F2F2F2"/>
<path d="M59.7738 263.44C79.0197 265.209 97.1856 273.124 111.586 286.014C123.851 297.115 132.901 311.313 137.786 327.118C138.071 328.022 138.33 328.924 138.573 329.831C139.059 328.905 139.531 327.959 139.998 327.021C140.299 326.421 140.605 325.811 140.896 325.205C140.563 326.25 140.223 327.305 139.855 328.342C139.464 328.874 139.078 329.396 138.693 329.917C138.665 329.94 138.642 329.979 138.614 330.002C138.459 330.213 138.303 330.424 138.164 330.63C137.497 331.525 136.821 332.414 136.154 333.308L136.716 333.346L138.123 333.436L138.117 333.445C137.645 333.435 137.163 333.42 136.686 333.394C136.513 333.395 136.325 333.399 136.148 333.384C136.09 333.11 136.016 332.839 135.943 332.568C130.956 312.155 118.751 294.236 101.581 282.123C84.4108 270.009 63.4369 264.519 42.5339 266.666C42.8329 265.547 43.1863 264.447 43.5649 263.35C48.9602 262.908 54.3837 262.938 59.7738 263.44Z" fill="white"/>
<path d="M123.719 182.946C131.441 188.732 138.277 195.614 144.009 203.376C146.996 207.514 149.591 211.921 151.761 216.539C152.789 218.683 153.725 220.889 154.568 223.119C154.75 227.017 154.842 230.909 154.845 234.795C154.129 231.857 153.257 228.96 152.232 226.115C151.698 224.553 151.106 223.022 150.477 221.508C143.42 204.557 130.635 191.174 115.556 180.998C99.3978 170.11 81.1815 161.937 62.7204 155.859C43.8009 149.602 24.1856 145.687 4.3134 144.202C3.86461 144.166 3.44712 143.958 3.14788 143.622C2.84864 143.285 2.69071 142.846 2.70695 142.396C2.69169 142.004 2.8302 141.622 3.09296 141.33C3.23256 141.193 3.40227 141.091 3.58849 141.032C3.7747 140.973 3.97223 140.958 4.16518 140.989C6.61748 141.173 9.06344 141.366 11.5093 141.626C31.8598 143.722 51.8706 148.341 71.0809 155.377C89.6257 162.143 107.979 170.918 123.719 182.946Z" fill="white"/>
<path d="M22.8852 89.1978C26.6419 89.1978 29.6872 86.1525 29.6872 82.3958C29.6872 78.6392 26.6419 75.5938 22.8852 75.5938C19.1286 75.5938 16.0832 78.6392 16.0832 82.3958C16.0832 86.1525 19.1286 89.1978 22.8852 89.1978Z" fill="#F2F2F2"/>
<path d="M440.758 145.19H131.987V408.184H440.758V145.19Z" fill="white"/>
<path d="M441.656 409.081H131.09V144.292H441.656V409.081ZM132.885 407.286H439.86V146.087H132.885V407.286Z" fill="#3F3D56"/>
<path d="M324.969 196.352H247.776V408.184H324.969V196.352Z" fill="#FFC107"/>
<path d="M324.969 196.352H247.776V408.184H324.969V196.352Z" fill="#FFC107"/>
<path opacity="0.2" d="M132.885 164.488V207.157L440.758 226.87L439.85 174.219L132.885 164.488Z" fill="black"/>
<path d="M458.71 120.955H114.035V196.352H458.71V120.955Z" fill="white"/>
<path d="M459.607 197.25H113.138V120.057H459.607V197.25ZM114.933 195.455H457.812V121.852H114.933V195.455Z" fill="#3F3D56"/>
<path d="M324.969 113.774H247.776V195.455H324.969V113.774Z" fill="#FFC107"/>
<path d="M278.108 42.556C298.484 72.7614 279.286 121.342 279.286 121.342C279.286 121.342 227.05 120.951 206.674 90.7454C186.297 60.5401 205.496 11.9591 205.496 11.9591C205.496 11.9591 257.731 12.3507 278.108 42.556Z" fill="#FFC107"/>
<path d="M287.457 42.556C267.08 72.7614 286.279 121.342 286.279 121.342C286.279 121.342 338.514 120.951 358.891 90.7454C379.267 60.5401 360.069 11.9591 360.069 11.9591C360.069 11.9591 307.833 12.3507 287.457 42.556Z" fill="#FFC107"/>
<path d="M232.517 65.3044C236.979 65.3044 240.596 61.6876 240.596 57.2261C240.596 52.7645 236.979 49.1478 232.517 49.1478C228.056 49.1478 224.439 52.7645 224.439 57.2261C224.439 61.6876 228.056 65.3044 232.517 65.3044Z" fill="#3F3D56"/>
<path d="M280.987 146.985C285.449 146.985 289.065 143.368 289.065 138.907C289.065 134.445 285.449 130.828 280.987 130.828C276.525 130.828 272.909 134.445 272.909 138.907C272.909 143.368 276.525 146.985 280.987 146.985Z" fill="#3F3D56"/>
<path d="M280.987 323.81C285.449 323.81 289.065 320.193 289.065 315.732C289.065 311.27 285.449 307.654 280.987 307.654C276.525 307.654 272.909 311.27 272.909 315.732C272.909 320.193 276.525 323.81 280.987 323.81Z" fill="#3F3D56"/>
<path d="M254.059 92.232C257.034 92.232 259.445 89.8209 259.445 86.8465C259.445 83.8722 257.034 81.461 254.059 81.461C251.085 81.461 248.674 83.8722 248.674 86.8465C248.674 89.8209 251.085 92.232 254.059 92.232Z" fill="#3F3D56"/>
<path d="M334.842 46.455C337.817 46.455 340.228 44.0438 340.228 41.0695C340.228 38.0951 337.817 35.6839 334.842 35.6839C331.868 35.6839 329.457 38.0951 329.457 41.0695C329.457 44.0438 331.868 46.455 334.842 46.455Z" fill="#3F3D56"/>
<path d="M299.836 173.015C302.811 173.015 305.222 170.604 305.222 167.63C305.222 164.655 302.811 162.244 299.836 162.244C296.862 162.244 294.451 164.655 294.451 167.63C294.451 170.604 296.862 173.015 299.836 173.015Z" fill="#3F3D56"/>
<path d="M267.523 243.027C270.498 243.027 272.909 240.616 272.909 237.642C272.909 234.667 270.498 232.256 267.523 232.256C264.549 232.256 262.138 234.667 262.138 237.642C262.138 240.616 264.549 243.027 267.523 243.027Z" fill="#3F3D56"/>
<path d="M295.348 267.262C298.323 267.262 300.734 264.851 300.734 261.876C300.734 258.902 298.323 256.491 295.348 256.491C292.374 256.491 289.963 258.902 289.963 261.876C289.963 264.851 292.374 267.262 295.348 267.262Z" fill="#3F3D56"/>
<path d="M289.065 368.69C292.04 368.69 294.451 366.278 294.451 363.304C294.451 360.33 292.04 357.919 289.065 357.919C286.091 357.919 283.68 360.33 283.68 363.304C283.68 366.278 286.091 368.69 289.065 368.69Z" fill="#3F3D56"/>
<path d="M558.531 268.669H394.239V408.604H558.531V268.669Z" fill="white"/>
<path d="M559.009 409.081H393.762V268.191H559.009V409.081ZM394.717 408.126H558.053V269.147H394.717V408.126Z" fill="#3F3D56"/>
<path d="M496.922 295.892H455.849V408.604H496.922V295.892Z" fill="#FFC107"/>
<path d="M496.922 295.892H455.849V408.604H496.922V295.892Z" fill="#FFC107"/>
<path opacity="0.2" d="M394.717 278.938V301.641L558.531 312.13L558.048 284.116L394.717 278.938Z" fill="black"/>
<path d="M568.083 255.774H384.687V295.892H568.083V255.774Z" fill="white"/>
<path d="M568.56 296.369H384.21V255.296H568.56V296.369ZM385.165 295.414H567.605V256.252H385.165V295.414Z" fill="#3F3D56"/>
<path d="M496.922 251.953H455.849V295.414H496.922V251.953Z" fill="#FFC107"/>
<path d="M471.988 214.059C482.829 230.131 472.614 255.98 472.614 255.98C472.614 255.98 444.821 255.772 433.979 239.7C423.137 223.628 433.352 197.779 433.352 197.779C433.352 197.779 461.145 197.988 471.988 214.059Z" fill="#FFC107"/>
<path d="M476.962 214.059C466.12 230.131 476.335 255.98 476.335 255.98C476.335 255.98 504.129 255.772 514.971 239.7C525.813 223.628 515.598 197.779 515.598 197.779C515.598 197.779 487.804 197.988 476.962 214.059Z" fill="#FFC107"/>
<path d="M447.729 226.163C450.103 226.163 452.028 224.239 452.028 221.865C452.028 219.491 450.103 217.567 447.729 217.567C445.356 217.567 443.431 219.491 443.431 221.865C443.431 224.239 445.356 226.163 447.729 226.163Z" fill="#3F3D56"/>
<path d="M473.52 269.624C475.893 269.624 477.818 267.7 477.818 265.326C477.818 262.952 475.893 261.028 473.52 261.028C471.146 261.028 469.221 262.952 469.221 265.326C469.221 267.7 471.146 269.624 473.52 269.624Z" fill="#3F3D56"/>
<path d="M473.52 363.71C475.893 363.71 477.818 361.785 477.818 359.412C477.818 357.038 475.893 355.113 473.52 355.113C471.146 355.113 469.221 357.038 469.221 359.412C469.221 361.785 471.146 363.71 473.52 363.71Z" fill="#3F3D56"/>
<path d="M459.192 240.491C460.774 240.491 462.057 239.208 462.057 237.626C462.057 236.043 460.774 234.76 459.192 234.76C457.609 234.76 456.326 236.043 456.326 237.626C456.326 239.208 457.609 240.491 459.192 240.491Z" fill="#3F3D56"/>
<path d="M502.175 216.134C503.758 216.134 505.041 214.851 505.041 213.268C505.041 211.686 503.758 210.403 502.175 210.403C500.593 210.403 499.31 211.686 499.31 213.268C499.31 214.851 500.593 216.134 502.175 216.134Z" fill="#3F3D56"/>
<path d="M483.549 283.474C485.132 283.474 486.414 282.191 486.414 280.609C486.414 279.026 485.132 277.743 483.549 277.743C481.966 277.743 480.683 279.026 480.683 280.609C480.683 282.191 481.966 283.474 483.549 283.474Z" fill="#3F3D56"/>
<path d="M466.356 320.727C467.938 320.727 469.221 319.444 469.221 317.861C469.221 316.278 467.938 314.996 466.356 314.996C464.773 314.996 463.49 316.278 463.49 317.861C463.49 319.444 464.773 320.727 466.356 320.727Z" fill="#3F3D56"/>
<path d="M481.161 333.622C482.744 333.622 484.027 332.339 484.027 330.756C484.027 329.173 482.744 327.891 481.161 327.891C479.578 327.891 478.295 329.173 478.295 330.756C478.295 332.339 479.578 333.622 481.161 333.622Z" fill="#3F3D56"/>
<path d="M477.818 387.589C479.401 387.589 480.684 386.307 480.684 384.724C480.684 383.141 479.401 381.858 477.818 381.858C476.235 381.858 474.952 383.141 474.952 384.724C474.952 386.307 476.235 387.589 477.818 387.589Z" fill="#3F3D56"/>
<path d="M275.839 344.133C277.275 341.105 270.62 334.942 260.975 330.368C251.33 325.793 242.347 324.54 240.911 327.568C239.475 330.595 246.13 336.758 255.775 341.333C265.42 345.907 274.403 347.161 275.839 344.133Z" fill="#2F2E41"/>
<path d="M355.44 375.319C358.009 373.168 354.537 364.789 347.684 356.604C340.831 348.419 333.193 343.528 330.623 345.68C328.054 347.831 331.526 356.21 338.379 364.395C345.232 372.58 352.87 377.471 355.44 375.319Z" fill="#2F2E41"/>
<path d="M301.916 392.444C323.265 392.444 340.572 375.137 340.572 353.787C340.572 332.438 323.265 315.131 301.916 315.131C280.566 315.131 263.259 332.438 263.259 353.787C263.259 375.137 280.566 392.444 301.916 392.444Z" fill="#2F2E41"/>
<path d="M318.278 384.125H306.534V405.167H318.278V384.125Z" fill="#2F2E41"/>
<path d="M294.79 384.125H283.046V405.167H294.79V384.125Z" fill="#2F2E41"/>
<path d="M308.491 409.081C313.896 409.081 318.278 407.438 318.278 405.411C318.278 403.384 313.896 401.741 308.491 401.741C303.086 401.741 298.704 403.384 298.704 405.411C298.704 407.438 303.086 409.081 308.491 409.081Z" fill="#2F2E41"/>
<path d="M285.003 408.592C290.408 408.592 294.79 406.949 294.79 404.922C294.79 402.895 290.408 401.252 285.003 401.252C279.598 401.252 275.217 402.895 275.217 404.922C275.217 406.949 279.598 408.592 285.003 408.592Z" fill="#2F2E41"/>
<path d="M289.778 305.195C293.229 291.294 308.466 283.113 323.81 286.923C339.153 290.733 348.793 305.091 345.342 318.992C341.89 332.893 330.438 332.937 315.094 329.128C299.751 325.318 286.326 319.096 289.778 305.195Z" fill="#E6E6E6"/>
<path d="M296.136 358.519C303.254 358.519 309.025 352.748 309.025 345.63C309.025 338.513 303.254 332.742 296.136 332.742C289.018 332.742 283.248 338.513 283.248 345.63C283.248 352.748 289.018 358.519 296.136 358.519Z" fill="white"/>
<path d="M290.839 345.307C293.212 345.307 295.135 343.383 295.135 341.011C295.135 338.638 293.212 336.715 290.839 336.715C288.467 336.715 286.543 338.638 286.543 341.011C286.543 343.383 288.467 345.307 290.839 345.307Z" fill="#3F3D56"/>
<path d="M304.221 372.482C304.423 373.592 304.405 374.731 304.167 375.834C303.929 376.937 303.475 377.982 302.833 378.91C302.191 379.838 301.373 380.63 300.425 381.242C299.476 381.853 298.417 382.272 297.307 382.474C296.197 382.676 295.058 382.658 293.955 382.42C292.852 382.182 291.807 381.729 290.879 381.086C289.951 380.444 289.159 379.626 288.547 378.678C287.936 377.729 287.517 376.67 287.315 375.56L287.312 375.543C286.467 370.874 290.077 369.222 294.746 368.376C299.416 367.531 303.376 367.813 304.221 372.482Z" fill="white"/>
<path d="M380.071 62.6508C389.937 58.5757 396.898 52.7612 395.619 49.6639C394.34 46.5666 385.304 47.3593 375.438 51.4344C365.572 55.5095 358.611 61.324 359.89 64.4213C361.169 67.5187 370.205 66.726 380.071 62.6508Z" fill="#2F2E41"/>
<path d="M474.819 89.3309C477.389 87.1796 473.916 78.8005 467.063 70.6158C460.211 62.4311 452.572 57.54 450.003 59.6913C447.433 61.8426 450.906 70.2216 457.759 78.4064C464.611 86.5911 472.25 91.4822 474.819 89.3309Z" fill="#2F2E41"/>
<path d="M421.295 106.456C442.645 106.456 459.952 89.1485 459.952 67.799C459.952 46.4494 442.645 29.1422 421.295 29.1422C399.945 29.1422 382.638 46.4494 382.638 67.799C382.638 89.1485 399.945 106.456 421.295 106.456Z" fill="#2F2E41"/>
<path d="M437.657 98.1371H425.913V119.178H437.657V98.1371Z" fill="#2F2E41"/>
<path d="M414.169 98.1371H402.425V119.178H414.169V98.1371Z" fill="#2F2E41"/>
<path d="M427.87 123.093C433.275 123.093 437.657 121.45 437.657 119.423C437.657 117.396 433.275 115.753 427.87 115.753C422.465 115.753 418.084 117.396 418.084 119.423C418.084 121.45 422.465 123.093 427.87 123.093Z" fill="#2F2E41"/>
<path d="M404.383 122.603C409.788 122.603 414.169 120.96 414.169 118.933C414.169 116.907 409.788 115.264 404.383 115.264C398.978 115.264 394.596 116.907 394.596 118.933C394.596 120.96 398.978 122.603 404.383 122.603Z" fill="#2F2E41"/>
<path d="M409.157 19.2063C412.609 5.30531 427.845 -2.87511 443.189 0.934798C458.532 4.74471 468.173 19.1023 464.721 33.0032C461.269 46.9042 449.817 46.9491 434.474 43.1391C419.13 39.3292 405.705 33.1073 409.157 19.2063Z" fill="#FFC107"/>
<path d="M415.516 72.5302C422.634 72.5302 428.404 66.76 428.404 59.6421C428.404 52.5241 422.634 46.7539 415.516 46.7539C408.398 46.7539 402.628 52.5241 402.628 59.6421C402.628 66.76 408.398 72.5302 415.516 72.5302Z" fill="white"/>
<path d="M410.219 65.6016C412.591 65.6016 414.515 63.6782 414.515 61.3055C414.515 58.9329 412.591 57.0095 410.219 57.0095C407.846 57.0095 405.923 58.9329 405.923 61.3055C405.923 63.6782 407.846 65.6016 410.219 65.6016Z" fill="#3F3D56"/>
<path d="M423.601 86.4938C424.009 88.7358 423.51 91.048 422.213 92.9219C420.916 94.7957 418.928 96.0777 416.686 96.4859C414.444 96.894 412.132 96.3948 410.258 95.0981C408.384 93.8014 407.102 91.8134 406.694 89.5715L406.691 89.5549C405.846 84.8855 409.456 83.2332 414.126 82.3879C418.795 81.5426 422.755 81.8245 423.601 86.4938Z" fill="white"/>
<path d="M90.553 392.444C111.903 392.444 129.21 375.137 129.21 353.787C129.21 332.438 111.903 315.13 90.553 315.13C69.2034 315.13 51.8962 332.438 51.8962 353.787C51.8962 375.137 69.2034 392.444 90.553 392.444Z" fill="#2F2E41"/>
<path d="M84.681 384.125H72.9372V405.167H84.681V384.125Z" fill="#2F2E41"/>
<path d="M108.169 384.125H96.4249V405.167H108.169V384.125Z" fill="#2F2E41"/>
<path d="M82.7237 409.081C88.1286 409.081 92.5102 407.438 92.5102 405.411C92.5102 403.384 88.1286 401.741 82.7237 401.741C77.3187 401.741 72.9371 403.384 72.9371 405.411C72.9371 407.438 77.3187 409.081 82.7237 409.081Z" fill="#2F2E41"/>
<path d="M106.211 408.592C111.616 408.592 115.998 406.949 115.998 404.922C115.998 402.895 111.616 401.252 106.211 401.252C100.806 401.252 96.4249 402.895 96.4249 404.922C96.4249 406.949 100.806 408.592 106.211 408.592Z" fill="#2F2E41"/>
<path d="M53.0546 317.838C49.9332 303.859 59.911 289.734 75.3405 286.288C90.7701 282.843 105.808 291.382 108.93 305.361C112.051 319.34 101.825 324.496 86.396 327.941C70.9665 331.386 56.1759 331.816 53.0546 317.838Z" fill="#FFC107"/>
<path d="M132.21 336.895C140.581 328.517 145.236 319.594 142.606 316.966C139.976 314.338 131.057 318.999 122.685 327.378C114.313 335.756 109.659 344.678 112.289 347.306C114.919 349.935 123.838 345.273 132.21 336.895Z" fill="#2F2E41"/>
<path d="M59.3942 349.999C62.0244 347.371 57.3699 338.449 48.9981 330.07C40.6263 321.692 31.7074 317.031 29.0773 319.659C26.4471 322.287 31.1016 331.21 39.4734 339.588C47.8452 347.966 56.764 352.628 59.3942 349.999Z" fill="#2F2E41"/>
<path d="M88.9265 361.521C96.2232 361.521 102.138 355.606 102.138 348.309C102.138 341.012 96.2232 335.097 88.9265 335.097C81.6298 335.097 75.7147 341.012 75.7147 348.309C75.7147 355.606 81.6298 361.521 88.9265 361.521Z" fill="white"/>
<path d="M88.9265 352.713C91.3587 352.713 93.3304 350.741 93.3304 348.309C93.3304 345.877 91.3587 343.905 88.9265 343.905C86.4942 343.905 84.5225 345.877 84.5225 348.309C84.5225 350.741 86.4942 352.713 88.9265 352.713Z" fill="#3F3D56"/>
<path d="M99.4144 372.744C99.6165 373.854 99.598 374.993 99.3598 376.096C99.1217 377.199 98.6687 378.244 98.0267 379.172C97.3846 380.1 96.5661 380.892 95.6178 381.503C94.6696 382.115 93.6101 382.534 92.5001 382.736C91.39 382.938 90.251 382.919 89.148 382.681C88.0451 382.443 86.9999 381.99 86.072 381.348C85.1442 380.706 84.3519 379.887 83.7404 378.939C83.1289 377.991 82.7101 376.932 82.508 375.821L82.505 375.805C81.6597 371.135 85.2699 369.483 89.9393 368.638C94.6087 367.793 98.5691 368.074 99.4144 372.744Z" fill="white"/>
</svg>
